<svg width="120" height="120" viewBox="0 0 120 120" xmlns="http://www.w3.org/2000/svg">
  <style>
    .line { stroke: #2d8dae; stroke-width: 4; }
    .dot { fill: #1f506b; }
  </style>
  <g>
    <!-- Verbindungen -->
    <line x1="60" y1="10" x2="100" y2="30" class="line"/>
    <line x1="60" y1="10" x2="20" y2="30" class="line"/>
    <line x1="100" y1="30" x2="100" y2="80" class="line"/>
    <line x1="100" y1="80" x2="60" y2="110" class="line"/>
    <line x1="60" y1="110" x2="20" y2="80" class="line"/>
    <line x1="20" y1="80" x2="20" y2="30" class="line"/>
    <line x1="20" y1="30" x2="100" y2="80" class="line"/>
    <line x1="100" y1="30" x2="20" y2="80" class="line"/>
    <line x1="60" y1="10" x2="60" y2="110" class="line"/>
    <line x1="100" y1="30" x2="60" y2="110" class="line"/>
  </g>
  <g>
    <!-- Knotenpunkte -->
    <circle cx="60" cy="10" r="6" class="dot"/>
    <circle cx="100" cy="30" r="6" class="dot"/>
    <circle cx="20" cy="30" r="6" class="dot"/>
    <circle cx="100" cy="80" r="6" class="dot"/>
    <circle cx="60" cy="110" r="6" class="dot"/>
    <circle cx="20" cy="80" r="6" class="dot"/>
  </g>
</svg>
