<svg xmlns="http://www.w3.org/2000/svg" viewBox="0 0 800 600">
  <style>
    .net {
      animation: rotateZoom 20s infinite linear;
      transform-origin: center center;
    }

    @keyframes rotateZoom {
      0% {
        transform: scale(1) rotate(0deg);
        opacity: 0.03;
      }
      50% {
        transform: scale(1.05) rotate(180deg);
        opacity: 0.045;
      }
      100% {
        transform: scale(1) rotate(360deg);
        opacity: 0.03;
      }
    }
  </style>

  <g class="net" stroke="#2d9cba" stroke-width="2" fill="none">
    <!-- Knoten -->
    <circle cx="100" cy="100" r="6" fill="#1f506b"/>
    <circle cx="300" cy="80" r="6" fill="#1f506b"/>
    <circle cx="500" cy="120" r="6" fill="#1f506b"/>
    <circle cx="700" cy="100" r="6" fill="#1f506b"/>
    <circle cx="200" cy="300" r="6" fill="#2d9cba"/>
    <circle cx="400" cy="320" r="6" fill="#2d9cba"/>
    <circle cx="600" cy="300" r="6" fill="#2d9cba"/>
    <circle cx="100" cy="500" r="6" fill="#1f506b"/>
    <circle cx="300" cy="480" r="6" fill="#1f506b"/>
    <circle cx="500" cy="500" r="6" fill="#1f506b"/>
    <circle cx="700" cy="480" r="6" fill="#1f506b"/>

    <!-- Verbindungen -->
    <line x1="100" y1="100" x2="300" y2="80"/>
    <line x1="300" y1="80" x2="500" y2="120"/>
    <line x1="500" y1="120" x2="700" y2="100"/>
    <line x1="300" y1="80" x2="400" y2="320"/>
    <line x1="100" y1="100" x2="200" y2="300"/>
    <line x1="700" y1="100" x2="600" y2="300"/>
    <line x1="200" y1="300" x2="400" y2="320"/>
    <line x1="400" y1="320" x2="600" y2="300"/>
    <line x1="200" y1="300" x2="300" y2="480"/>
    <line x1="600" y1="300" x2="500" y2="500"/>
    <line x1="100" y1="500" x2="300" y2="480"/>
    <line x1="300" y1="480" x2="500" y2="500"/>
    <line x1="500" y1="500" x2="700" y2="480"/>
  </g>
</svg>
